# xmcd
#
# Track frame offsets:
#	150
#	15514
#	28706
#	41031
#	52194
#	64545
#	75669
#	87081
#	98923
#	112736
#
# Disc length: 1672 seconds
#
# Revision: 0
# Processed by: cddbd v1.5.2PL0 Copyright (c) Steve Scherf et al.
# Submitted via: EasyCDDAExtractor 12.0.0.1
#
DISCID=7106860a
DTITLE=Yuri - Ilumina Tu Vida
DYEAR=1979
DGENRE=Latin
TTITLE0=Tu Iluminas Mi Vida (You Light Up My Life)
TTITLE1=Las Cosas Bonitas Del Amor
TTITLE2=Espinita
TTITLE3=Asi (Alone)
TTITLE4=Cantar, Reir Y Silbar
TTITLE5=Soñando (Dreamin')
TTITLE6=Nos Pertenecemos (We Belong Together)
TTITLE7=Hoy Todo Es Amor
TTITLE8=Que Haremos El Domingo
TTITLE9=Suave Tristeza
EXTD=
EXTT0=
EXTT1=
EXTT2=
EXTT3=
EXTT4=
EXTT5=
EXTT6=
EXTT7=
EXTT8=
EXTT9=
PLAYORDER=
